<?xml version="1.0" standalone="no"?>
<!DOCTYPE svg PUBLIC "-//W3C//DTD SVG 20010904//EN"
 "http://www.w3.org/TR/2001/REC-SVG-20010904/DTD/svg10.dtd">
<svg version="1.0" xmlns="http://www.w3.org/2000/svg"
 width="206.000000pt" height="206.000000pt" viewBox="0 0 206.000000 206.000000"
 preserveAspectRatio="xMidYMid meet">
<metadata>
Created by potrace 1.14, written by Peter Selinger 2001-2017
</metadata>
<g transform="translate(0.000000,206.000000) scale(0.100000,-0.100000)"
fill="#000000" stroke="none">
<path d="M936 2011 c-4 -5 -2 -12 3 -15 5 -4 12 -2 15 3 4 5 2 12 -3 15 -5 4
-12 2 -15 -3z"/>
<path d="M966 1999 c-12 -12 -23 -15 -30 -10 -14 11 -83 21 -91 13 -12 -13
-58 -12 -73 0 -15 12 -16 11 -3 -4 12 -16 11 -18 -6 -18 -10 0 -25 6 -32 13
-10 10 -11 9 -6 -4 4 -10 1 -20 -5 -24 -6 -4 -9 -1 -8 7 2 9 -5 12 -22 9 -28
-3 -42 -19 -33 -36 4 -5 -2 -3 -13 6 -22 18 -58 14 -51 -5 4 -9 -3 -12 -19
-10 -41 4 -189 -103 -290 -209 -96 -100 -156 -196 -210 -331 -50 -126 -67
-221 -67 -376 1 -151 24 -263 82 -399 34 -80 118 -214 174 -276 l36 -40 1 103
0 102 45 0 45 0 0 240 0 240 25 0 c24 0 25 3 25 60 0 33 1 60 3 60 49 10 191
29 215 30 28 0 32 -3 32 -25 0 -21 5 -25 30 -25 26 0 30 -4 30 -26 0 -22 4
-26 24 -22 20 4 25 0 30 -24 4 -22 11 -28 31 -28 20 0 25 -5 25 -26 0 -25 2
-26 48 -20 26 3 94 11 152 16 151 16 150 15 150 50 0 26 4 30 26 30 23 0 25 3
19 30 -6 27 -4 30 19 30 22 0 26 4 26 30 0 22 5 30 18 30 9 0 27 3 39 6 18 5
22 1 25 -23 3 -24 7 -28 30 -25 24 2 27 -1 30 -30 3 -32 4 -33 43 -30 22 2 59
8 82 13 23 5 80 12 127 15 l86 7 0 -46 c0 -40 3 -46 23 -49 21 -3 22 -6 25
-145 l3 -143 -26 0 -25 0 0 -190 c0 -104 2 -190 4 -190 3 0 32 36 65 81 193
256 255 595 166 904 -47 162 -122 291 -239 414 -89 92 -163 150 -246 191 -36
18 -73 36 -82 41 -11 5 -20 5 -24 -2 -5 -8 -9 -8 -13 0 -4 6 -24 12 -44 13
-20 1 -35 6 -34 12 1 5 -7 11 -18 13 -17 3 -18 2 -5 -7 11 -8 7 -9 -20 -5 -81
13 -101 12 -117 -4 -15 -15 -16 -14 -11 4 4 15 0 21 -13 21 -10 0 -15 -4 -13
-8 5 -8 -1 -9 -58 -11 -13 0 -33 4 -44 11 -12 6 -24 8 -28 4 -4 -3 -10 -2 -14
4 -5 7 -14 5 -26 -7z m-80 -11 c3 -4 -1 -5 -10 -4 -8 1 -18 5 -22 8 -3 4 1 5
10 4 8 -1 18 -5 22 -8z m514 -38 c0 -5 -7 -7 -15 -4 -8 4 -15 8 -15 10 0 2 7
4 15 4 8 0 15 -4 15 -10z m0 -279 c0 -137 0 -140 23 -143 14 -2 23 -11 25 -25
3 -20 10 -22 70 -25 60 -3 67 -5 70 -25 2 -14 11 -23 25 -25 14 -2 23 -11 25
-25 3 -17 10 -23 28 -23 17 0 24 -5 24 -20 0 -14 7 -20 22 -20 13 0 18 -4 13
-9 -15 -14 -135 -24 -135 -11 0 6 -34 10 -89 10 -82 0 -91 -2 -108 -24 -16
-20 -31 -25 -123 -34 -66 -7 -108 -8 -114 -2 -6 6 -47 10 -92 10 -74 0 -85 -2
-98 -22 -14 -20 -33 -24 -163 -40 -187 -22 -223 -22 -223 -4 0 8 10 16 23 18
14 2 23 11 25 25 2 14 11 23 25 25 14 2 23 11 25 26 3 19 9 22 53 22 46 0 49
2 49 25 0 18 5 25 20 25 17 0 20 7 20 50 0 47 -2 50 -25 50 -15 0 -25 5 -24
13 4 31 -2 36 -43 34 l-43 -2 -3 48 c-3 42 -5 47 -28 47 -22 0 -24 -4 -24 -45
0 -41 -2 -45 -25 -45 -23 0 -25 4 -25 45 0 41 2 45 25 45 20 0 25 5 25 25 0
20 -5 25 -25 25 -20 0 -25 5 -25 25 0 18 -5 25 -20 25 -13 0 -20 7 -20 20 0
11 4 20 9 20 5 0 23 3 40 6 28 6 31 4 31 -20 0 -21 5 -26 25 -26 20 0 25 -5
25 -25 0 -23 3 -25 50 -25 47 0 50 -2 50 -25 0 -20 5 -25 25 -25 23 0 25 -3
25 -50 l0 -50 173 0 c94 0 202 3 240 7 l67 6 0 68 c0 62 -2 69 -20 69 -13 0
-20 7 -20 20 0 15 7 20 25 20 23 0 25 3 25 50 l0 50 45 0 45 0 0 -139z m-870
-151 l0 -190 25 0 c20 0 25 -5 25 -25 0 -20 -5 -25 -25 -25 -23 0 -25 -4 -25
-45 0 -38 -3 -45 -20 -45 -19 0 -20 7 -20 260 0 253 1 260 20 260 19 0 20 -7
20 -190z m147 -20 c-1 -14 -8 -20 -24 -20 -16 0 -23 6 -23 20 0 15 7 20 24 20
19 0 24 -5 23 -20z m93 -50 c0 -17 -7 -20 -45 -20 -38 0 -45 3 -45 20 0 17 7
20 45 20 38 0 45 -3 45 -20z m830 -225 c0 -20 5 -25 24 -25 23 0 42 -32 30
-52 -11 -18 -44 -7 -50 17 -4 18 -13 25 -31 25 -21 0 -24 -4 -21 -27 3 -24 -1
-28 -22 -28 -20 0 -25 5 -25 25 0 18 6 26 23 28 17 3 22 10 22 33 0 24 4 29
25 29 20 0 25 -5 25 -25z m-100 -15 c0 -25 -4 -30 -25 -30 -21 0 -25 5 -25 30
0 25 4 30 25 30 21 0 25 -5 25 -30z m-524 -90 c19 0 24 -5 24 -24 0 -19 6 -25
28 -28 19 -2 28 -9 30 -25 2 -13 -1 -23 -6 -23 -6 0 -17 -3 -26 -6 -11 -4 -16
0 -16 12 0 31 -16 47 -39 39 -16 -5 -20 -12 -15 -30 4 -18 1 -25 -16 -30 -26
-8 -26 -8 -35 28 -6 24 -5 27 19 27 22 0 26 4 26 31 0 26 -3 30 -22 27 -16 -2
-24 -11 -27 -28 -6 -48 -51 -56 -51 -10 0 28 -3 30 -27 28 -24 -3 -28 1 -31
25 -3 23 0 27 21 27 18 0 27 -7 31 -25 5 -18 13 -25 31 -25 22 0 24 3 19 29
-5 25 -3 30 17 33 19 2 26 -3 33 -24 6 -20 16 -28 32 -28z"/>
<path d="M1050 2006 c0 -2 11 -6 25 -8 14 -3 25 -1 25 3 0 5 -11 9 -25 9 -14
0 -25 -2 -25 -4z"/>
<path d="M1447 993 c-4 -3 -7 -26 -7 -50 l0 -43 50 0 c47 0 50 -2 50 -25 0
-24 2 -25 70 -25 l70 0 0 69 0 68 -67 6 c-88 9 -158 9 -166 0z"/>
<path d="M1587 753 c-13 -26 0 -38 46 -41 45 -3 47 -2 47 22 0 24 -3 26 -44
26 -25 0 -47 -3 -49 -7z"/>
<path d="M1200 730 c0 -15 7 -20 25 -20 20 0 25 -5 25 -25 l0 -25 170 0 170 0
0 25 0 25 -170 0 c-163 0 -170 1 -170 20 0 15 -7 20 -25 20 -18 0 -25 -5 -25
-20z"/>
</g>
</svg>
